<svg width="24" height="24" viewBox="0 0 24 24" fill="none" xmlns="http://www.w3.org/2000/svg">
  <path fill-rule="evenodd" clip-rule="evenodd" d="M20.4636 3.51315C18.2147 1.2613 15.2233 0.0212126 12.0382 0.02C5.47265 0.02 0.127895 5.36215 0.125263 11.9292C0.124382 14.0288 0.673026 16.0782 1.71579 17.8849L0.0252631 24.0588L6.34211 22.4017C8.08246 23.3517 10.0413 23.852 12.0334 23.8527H12.0382C18.6029 23.8527 23.948 18.51 23.9509 11.9426C23.9523 8.76092 22.7126 5.76502 20.4636 3.51315ZM12.0382 21.8403H12.034C10.2589 21.8396 8.51815 21.3623 6.99843 20.4607L6.63686 20.246L2.88886 21.2287L3.88822 17.5752L3.65271 17.2007C2.66202 15.6258 2.13911 13.8043 2.13993 11.9298C2.14207 6.47246 6.58269 2.03332 12.0421 2.03332C14.6857 2.03435 17.1697 3.06492 19.0386 4.93517C20.9075 6.80543 21.9359 9.29097 21.935 11.9418C21.9329 17.3997 17.4924 21.8403 12.0382 21.8403ZM17.4664 14.4233C17.169 14.2742 15.7066 13.5547 15.4339 13.4555C15.1612 13.3563 14.9626 13.3068 14.7642 13.6048C14.5658 13.9028 13.9957 14.5728 13.8221 14.7711C13.6485 14.9694 13.4748 14.9942 13.1774 14.8451C12.88 14.6961 11.9217 14.3818 10.7855 13.3683C9.90148 12.5797 9.30436 11.6058 9.13073 11.3076C8.95709 11.0095 9.11214 10.8482 9.26104 10.6996C9.39474 10.566 9.55846 10.3517 9.70736 10.1779C9.85626 10.0041 9.90584 9.87985 10.0050 9.68151C10.1042 9.48316 10.0546 9.30932 9.98026 9.16025C9.90584 9.01118 9.31099 7.5468 9.06311 6.95061C8.82175 6.37016 8.57674 6.44857 8.39418 6.43941C8.22086 6.43075 8.0226 6.42889 7.82433 6.42889C7.62607 6.42889 7.30403 6.50312 7.0314 6.80128C6.75878 7.09943 5.99181 7.81905 5.99181 9.28346C5.99181 10.7479 7.05608 12.1626 7.20498 12.3609C7.35388 12.5593 9.30152 15.5641 12.2845 16.8521C12.9941 17.1581 13.5478 17.3413 13.9799 17.4779C14.6924 17.7043 15.3408 17.6724 15.8531 17.5963C16.4243 17.5111 17.6125 16.8769 17.8604 16.1822C18.1083 15.4874 18.1083 14.892 18.0339 14.7677C17.9595 14.6434 17.7611 14.5687 17.4636 14.4196L17.4664 14.4233Z" fill="#000000"/>
</svg>
